<?xml version="1.0" standalone="no"?>
<!DOCTYPE svg PUBLIC "-//W3C//DTD SVG 20010904//EN"
 "http://www.w3.org/TR/2001/REC-SVG-20010904/DTD/svg10.dtd">
<svg version="1.0" xmlns="http://www.w3.org/2000/svg"
 width="420.000000pt" height="120.000000pt" viewBox="0 0 420.000000 120.000000"
 preserveAspectRatio="xMidYMid meet">

<g transform="translate(0.000000,120.000000) scale(0.100000,-0.100000)"
fill="#000000" stroke="none">
<path d="M1483 1154 c-7 -3 -17 -21 -23 -40 -15 -45 -43 -60 -72 -39 -34 23
-64 18 -92 -16 -30 -35 -32 -56 -11 -87 21 -29 6 -58 -34 -67 -22 -5 -33 -15
-41 -39 -16 -49 12 -106 51 -106 30 0 43 -37 25 -65 -22 -34 -20 -49 11 -85
22 -26 31 -31 55 -26 95 20 87 22 104 -20 19 -46 29 -54 69 -54 40 0 75 25 75
54 0 31 39 49 65 30 28 -21 63 -17 90 11 27 26 33 73 14 92 -17 17 -2 63 19
63 38 0 62 29 62 75 0 46 -24 75 -62 75 -21 0 -36 46 -19 63 19 19 12 60 -16
89 -29 31 -59 35 -88 14 -23 -17 -65 -2 -65 23 0 35 -30 61 -68 60 -20 0 -42
-3 -49 -5z m75 -36 c7 -7 12 -22 12 -35 0 -40 84 -70 110 -38 17 20 33 19 55
-6 18 -19 18 -21 2 -52 -16 -29 -16 -36 -4 -66 10 -24 24 -37 48 -45 27 -9 35
-17 37 -40 4 -31 -10 -46 -45 -46 -17 0 -27 -10 -38 -37 -15 -34 -14 -40 2
-70 17 -32 17 -33 -4 -55 -22 -21 -23 -21 -55 -4 -31 17 -36 17 -71 3 -28 -12
-37 -22 -37 -40 0 -59 -74 -62 -85 -3 -6 28 -13 36 -44 46 -33 11 -42 10 -65
-5 -26 -17 -27 -17 -51 5 -25 23 -25 23 -6 53 17 27 17 32 3 68 -9 25 -21 39
-33 39 -36 0 -49 12 -49 45 0 33 13 45 50 45 11 0 23 13 33 37 13 33 13 39 -4
68 -19 32 -19 32 6 55 l25 24 28 -20 c25 -19 29 -19 64 -5 21 9 38 21 38 28 0
6 4 23 10 37 10 28 47 35 68 14z"/>
<path d="M1468 934 c-53 -28 -72 -98 -43 -154 21 -40 53 -60 98 -60 64 0 100
27 120 92 10 29 -13 86 -44 112 -35 30 -88 34 -131 10z m117 -39 c52 -51 16
-145 -55 -145 -40 0 -90 47 -90 85 0 16 12 38 29 56 38 37 82 39 116 4z"/>
<path d="M2015 1082 c-22 -11 -46 -26 -54 -35 -10 -13 -24 -15 -72 -10 -48 5
-59 3 -59 -9 0 -10 19 -17 63 -25 l62 -10 37 33 c35 31 101 54 115 40 4 -3 -1
-22 -10 -41 -29 -61 -23 -91 32 -151 28 -31 58 -77 69 -106 17 -45 24 -54 52
-59 45 -9 53 -21 58 -81 3 -44 0 -58 -18 -81 -17 -21 -28 -27 -46 -23 -19 5
-24 1 -34 -32 -18 -53 -47 -99 -107 -164 -49 -54 -57 -71 -65 -148 -3 -25 -4
-25 -93 -25 l-90 0 -3 32 -3 33 -80 0 -79 0 0 -35 0 -36 -87 3 c-86 3 -88 4
-91 28 -8 74 -16 94 -69 157 -56 68 -103 152 -103 186 0 10 -8 17 -19 17 -18
0 -18 -4 -9 -37 17 -63 57 -133 104 -183 46 -49 64 -91 64 -145 0 -48 15 -55
113 -55 100 0 127 10 127 45 0 23 4 25 50 25 43 0 50 -3 50 -19 0 -40 26 -51
121 -51 114 0 129 7 129 64 0 46 7 58 93 163 26 32 54 77 63 101 11 28 23 42
35 42 10 0 31 11 46 24 26 23 28 29 28 99 0 66 -3 79 -24 101 -14 14 -34 26
-46 26 -16 0 -26 12 -43 53 -12 29 -43 76 -69 106 l-46 53 18 55 c14 40 16 59
8 71 -14 24 -71 25 -118 4z"/>
<path d="M182 830 c-34 -14 -42 -49 -42 -181 0 -151 12 -179 76 -179 16 0 35
-5 42 -12 18 -18 45 9 32 32 -6 10 -10 81 -10 158 0 119 -3 143 -17 160 -22
25 -51 33 -81 22z m43 -181 c0 -112 -2 -134 -15 -134 -12 0 -15 22 -18 124 -3
132 0 155 21 148 9 -3 12 -39 12 -138z"/>
<path d="M4010 824 c0 -9 -9 -27 -20 -41 -34 -43 -26 -89 25 -157 45 -60 50
-72 39 -100 -13 -35 -44 -11 -44 35 0 12 -7 19 -20 19 -16 0 -20 -7 -20 -34 0
-18 9 -45 20 -59 11 -14 20 -30 20 -36 0 -6 11 -11 25 -11 14 0 25 5 25 11 0
6 9 22 20 36 34 43 27 91 -25 159 -46 61 -55 93 -31 113 12 10 17 8 25 -8 6
-11 11 -29 11 -40 0 -14 6 -21 20 -21 16 0 20 7 20 34 0 18 -9 45 -20 59 -11
14 -20 32 -20 41 0 10 -9 16 -25 16 -16 0 -25 -6 -25 -16z"/>
<path d="M342 669 l3 -162 27 -20 c18 -13 34 -18 51 -13 54 13 57 24 57 197 0
152 -1 159 -20 159 -18 0 -20 -8 -22 -152 -3 -140 -5 -153 -22 -156 -10 -2
-22 2 -27 10 -5 7 -9 77 -9 156 0 136 -1 142 -20 142 -20 0 -20 -5 -18 -161z"/>
<path d="M540 650 c0 -173 1 -180 20 -180 19 0 20 7 20 180 0 173 -1 180 -20
180 -19 0 -20 -7 -20 -180z"/>
<path d="M660 810 c-18 -18 -20 -33 -20 -159 0 -139 0 -140 26 -160 33 -26 45
-26 78 0 33 26 37 79 6 79 -13 0 -20 -7 -20 -20 0 -25 -29 -38 -41 -19 -5 8
-9 64 -9 125 0 85 3 114 14 124 12 9 17 7 28 -9 17 -27 48 -28 48 -1 0 28 -35
60 -65 60 -14 0 -34 -9 -45 -20z"/>
<path d="M830 650 c0 -172 1 -180 20 -180 18 0 20 8 22 103 3 112 6 111 40
-13 19 -72 26 -85 46 -88 12 -2 22 -1 22 2 0 3 -15 63 -34 132 l-35 127 25 49
24 48 -28 0 c-24 0 -32 -6 -45 -37 l-15 -38 -1 38 c-1 30 -5 37 -21 37 -19 0
-20 -7 -20 -180z"/>
<path d="M2026 794 c-22 -21 -20 -50 4 -74 24 -24 38 -25 68 -4 24 17 30 62
10 82 -17 17 -64 15 -82 -4z m62 -37 c2 -11 -3 -17 -17 -17 -23 0 -35 15 -26
31 10 15 39 6 43 -14z"/>
<path d="M2570 630 l0 -170 43 0 c78 0 88 34 68 243 -7 87 -15 97 -73 97 l-38
0 0 -170z m70 90 c0 -29 -4 -40 -15 -40 -11 0 -15 11 -15 40 0 29 4 40 15 40
11 0 15 -11 15 -40z m5 -150 c0 -54 -3 -65 -17 -68 -16 -3 -18 5 -18 68 0 63
2 71 18 68 14 -3 17 -14 17 -68z"/>
<path d="M2740 655 c0 -142 1 -147 25 -170 32 -33 68 -32 94 1 19 24 21 40 21
170 0 137 -1 144 -20 144 -19 0 -20 -7 -20 -139 0 -115 -3 -141 -16 -152 -14
-11 -18 -10 -30 6 -10 14 -14 54 -14 152 0 126 -1 133 -20 133 -19 0 -20 -7
-20 -145z"/>
<path d="M2949 783 c-10 -11 -15 -54 -17 -144 -4 -126 -3 -129 22 -154 14 -14
32 -25 41 -25 23 0 65 45 65 70 0 28 -33 26 -45 -2 -21 -47 -30 -16 -33 107
-2 110 -1 125 14 125 9 0 18 -9 21 -20 8 -29 43 -26 43 3 0 49 -80 78 -111 40z"/>
<path d="M3110 630 c0 -163 1 -170 20 -170 18 0 20 7 20 88 0 49 3 92 7 96 4
3 18 -35 33 -86 22 -82 28 -93 49 -96 17 -3 22 0 19 10 -3 7 -18 62 -33 121
-30 114 -30 108 2 195 3 7 -4 12 -19 12 -17 0 -27 -9 -38 -32 l-13 -33 -4 33
c-3 24 -9 32 -24 32 -18 0 -19 -9 -19 -170z"/>
<path d="M3430 630 l0 -170 43 0 c81 0 103 48 96 213 -5 107 -19 127 -91 127
l-48 0 0 -170z m88 11 c3 -108 -4 -141 -29 -141 -5 0 -9 59 -9 131 0 119 2
130 18 127 15 -3 17 -18 20 -117z"/>
<path d="M3620 630 l0 -170 55 0 c48 0 55 2 55 20 0 16 -7 20 -35 20 l-35 0 0
69 0 70 33 3 c24 2 33 8 35 26 3 19 -1 22 -32 22 -34 0 -36 2 -36 35 0 33 2
35 35 35 28 0 35 4 35 20 0 18 -7 20 -55 20 l-55 0 0 -170z"/>
<path d="M3784 773 c3 -16 12 -80 21 -143 23 -166 24 -170 46 -170 22 0 24 7
44 170 8 69 18 135 20 148 4 18 1 22 -19 22 -23 0 -24 -4 -31 -81 -8 -93 -20
-88 -30 13 -7 64 -9 68 -32 68 -21 0 -24 -3 -19 -27z"/>
</g>
</svg>
